<svg id="Object" xmlns="http://www.w3.org/2000/svg" viewBox="0 0 1250 750">
  <rect y="1" width="1250" height="760.67" fill="#72cada"/>
  <g fill="#404040">
    <path d="M233 387.78v17.82h-16.37v-61.2h25.74a31.7 31.7 0 0112.73 2.48 20.59 20.59 0 019.09 7.47 21.1 21.1 0 013.38 12.1 19.22 19.22 0 01-3.6 11.84 21.47 21.47 0 01-9.5 7.15 34.43 34.43 0 01-12.82 2.34zm17.64-21.33a9.29 9.29 0 00-2.39-6.66 8.43 8.43 0 00-6.43-2.52H233v17.64h9a8.41 8.41 0 006.21-2.43 8.19 8.19 0 002.44-6.03zM329.76 392.73l1.53 12.87h-44.82v-61.2h43.29l1.53 12.87h-28.44v11.16h18.81l1.53 12.87h-20.34v11.43zM350.19 405.6v-61.2h25.74q11 0 18.09 5.22t7.11 15.66a19.68 19.68 0 01-2.21 9.49 18.55 18.55 0 01-6.07 6.71l13.5 24.12h-19l-9.9-19.26h-10.88v19.26zm34-40.32a7.59 7.59 0 00-2.3-6 9.58 9.58 0 00-6.52-2h-8.82v16.2h9a8.68 8.68 0 006.21-2.29 7.76 7.76 0 002.45-5.91zM440.73 369.6h18.81l1.53 12.87h-20.34v23.13h-16.38v-61.11H464l1.53 12.87h-24.8zM527.76 392.73l1.53 12.87h-44.82v-61.2h43.29l1.53 12.87h-28.44v11.16h18.81l1.53 12.87h-20.34v11.43zM575.1 343.23a36.05 36.05 0 019.58 1.35 28.93 28.93 0 018.42 3.69l-4.86 11.07a69.75 69.75 0 00-7.34-2.16 27.35 27.35 0 00-5.62-.54 12.21 12.21 0 00-7.07 2.34 17.07 17.07 0 00-5.49 6.57 21.24 21.24 0 00-2.11 9.63 20.53 20.53 0 002.16 9.63 15.92 15.92 0 005.71 6.35 13.87 13.87 0 007.43 2.2 22.4 22.4 0 0011.61-3.36l6.21 12.24a31.28 31.28 0 01-8.51 3.29 41.25 41.25 0 01-9.76 1.21 34.23 34.23 0 01-16.92-4 27.28 27.28 0 01-11-11.12 34 34 0 01-3.82-16.38 33.52 33.52 0 014-16.56 29.18 29.18 0 0111.2-11.38 31.93 31.93 0 0116.18-4.07zM619 345.15l48 21-3.77 12.41-17.88-7.84L625.9 415l-15-6.58 19.39-44.26-16.48-7.23zM693.71 344.4v61.2h-16.38v-61.2zM713.51 375.27a33.75 33.75 0 014-16.6 29.12 29.12 0 0111.25-11.44 32.46 32.46 0 0116.29-4.09 33.13 33.13 0 0116.95 4.14 28.12 28.12 0 0111 11.34 33.6 33.6 0 013.82 16 34.22 34.22 0 01-4 16.69 28.7 28.7 0 01-11.21 11.44 35.31 35.31 0 01-33.16-.09 28.76 28.76 0 01-11-11.39 33.29 33.29 0 01-3.94-16zm31.77-18.45a13 13 0 00-7.51 2.3 16.09 16.09 0 00-5.4 6.48 21.72 21.72 0 00-2 9.58q0 7.92 3.92 13a12.86 12.86 0 0010.75 5 13.61 13.61 0 0010.76-4.81q4.18-4.81 4.18-13.73 0-7.83-4-12.83a13 13 0 00-10.7-4.99zM813 373.38v32.22h-16.42v-61.2h15.21l23.58 33.21V344.4h16.38v61.2h-15.3zM892.43 344.4v61.2h-16.38v-61.2zM932.57 406.77a45.25 45.25 0 01-10.66-1.44 35.25 35.25 0 01-9.41-3.51l5.4-12.33a29.5 29.5 0 006.71 2.66 27.91 27.91 0 007.51 1.21 10 10 0 005.76-1.48c1.44-1 2.16-2.09 2.16-3.29a3 3 0 00-1.57-2.3c-1.05-.74-2.75-1.81-5.09-3.19l-2.79-1.62q-6.12-3.6-9.54-6a25.45 25.45 0 01-6.12-6.17 14.35 14.35 0 01-2.7-8.55 15.32 15.32 0 012.84-9 18.71 18.71 0 018-6.25 29.59 29.59 0 0112-2.25 36.07 36.07 0 019.59 1.35 28.86 28.86 0 018.41 3.69l-4.86 11.07a69 69 0 00-7.33-2.16 27.38 27.38 0 00-5.63-.54 7 7 0 00-4.36 1.26 3.74 3.74 0 00-1.67 3.06 3 3 0 001.4 2.39 39.09 39.09 0 004.63 2.74l3.24 1.8a104.76 104.76 0 019.45 6 28.24 28.24 0 016.44 6.47 14.21 14.21 0 012.65 8.42 15.27 15.27 0 01-3 9.27 19.76 19.76 0 01-8.5 6.39 33 33 0 01-12.96 2.3zM1017 376l-8.28 11.16-6.57.9-9.91-12.06v29.6h-16.38v-61.2h11.25l18.45 23.31 16.92-23.31h10.89v61.2H1017z"/>
  </g>
</svg>
