<svg id="Object" xmlns="http://www.w3.org/2000/svg" viewBox="0 0 1250 750">
  <rect width="1250" height="746.89" fill="#d4f4f3"/>
  <g>
    <ellipse cx="325.41" cy="374.72" rx="229.9" ry="229.8" fill="#fff"/>
    <g>
      <path d="M373,663.53,321.32,384.37A9.13,9.13,0,0,1,335,374.89L580.43,522.68,487,546.42,546.43,632a15,15,0,0,1-3.93,21l-33.79,22.82A15,15,0,0,1,488,672.1l-59.21-83.67Z" fill="#66bcbc"/>
      <path d="M500.36,682.15a18.8,18.8,0,0,1-15.38-7.9L428.75,594.8l-52.71,71a3.74,3.74,0,0,1-6.68-1.55L317.64,385.05a12.87,12.87,0,0,1,19.3-13.36L582.36,519.48a3.73,3.73,0,0,1-1,6.82l-88.18,22.41,56.34,81.2a18.77,18.77,0,0,1-4.92,26.24L510.81,679A18.63,18.63,0,0,1,500.36,682.15Zm-71.54-97.46h.05a3.73,3.73,0,0,1,3,1.58l59.2,83.67a11.36,11.36,0,0,0,15.54,2.83L540.4,650a11.27,11.27,0,0,0,3-15.78L484,548.55a3.75,3.75,0,0,1,2.15-5.76l84.73-21.53L333.07,378.09a5.39,5.39,0,0,0-8.07,5.6l50.15,270.72,50.67-68.21A3.75,3.75,0,0,1,428.82,584.69Z" fill="#47454c"/>
    </g>
    <g>
      <path d="M446.3,253.3a3.74,3.74,0,0,0-5.29,0l-48,47.94a3.74,3.74,0,0,0,5.29,5.29l48-47.94A3.74,3.74,0,0,0,446.3,253.3Z" fill="#47454c"/>
      <path d="M244,450.27l-48,47.94a3.74,3.74,0,1,0,5.29,5.28l48-47.94a3.74,3.74,0,1,0-5.29-5.28Z" fill="#47454c"/>
      <path d="M219.48,378.4a3.74,3.74,0,0,0-3.74-3.74H147.91a3.74,3.74,0,1,0,0,7.48h67.83A3.75,3.75,0,0,0,219.48,378.4Z" fill="#47454c"/>
      <path d="M201.3,253.3a3.74,3.74,0,0,0-5.29,5.29l48,47.94a3.74,3.74,0,1,0,5.29-5.29Z" fill="#47454c"/>
      <path d="M321.16,201.48a3.74,3.74,0,0,0-3.74,3.74V273a3.74,3.74,0,1,0,7.48,0v-67.8A3.75,3.75,0,0,0,321.16,201.48Z" fill="#47454c"/>
    </g>
  </g>
</svg>
