<svg id="Object" xmlns="http://www.w3.org/2000/svg" viewBox="0 0 1250 750">
  <rect y="1" width="1250" height="760.67" fill="#29272a"/>
  <circle cx="635.58" cy="380.22" r="227.52" transform="translate(-20.19 35.98) rotate(-3.19)" fill="#84bfb4"/>
  <path d="M482.22,496.75l153.36,111c134.3-3.44,227.52-110,227.52-227.52,0-3.83-1.93-27.33-2.12-31.12l-72-69.78Z" fill="#61afa0"/>
  <g>
    <g>
      <path d="M635.58,279.32c-90.89-35.16-153.36,0-153.36,0V496.75c60.4-30,153.36,0,153.36,0s93-30,153.37,0V279.32S726.47,244.16,635.58,279.32Z" fill="#9682a8"/>
      <g>
        <path d="M635.58,290.8V483.49s-84.83-26.61-140,0V290.8S552.64,259.64,635.58,290.8Z" fill="#e4e5d3"/>
        <path d="M635.58,290.8V483.49s84.83-26.61,140,0V290.8S718.52,259.64,635.58,290.8Z" fill="#e4e5d3"/>
      </g>
    </g>
    <g>
      <path d="M622.06,313.15c-62.37-22.73-112.12-.31-112.62-.08l-2-4.34c.51-.24,52-23.52,116.27-.08Z" fill="#c4bfab"/>
      <path d="M622.06,325.13c-62.37-22.72-112.12-.3-112.62-.07l-2-4.35c.51-.24,52-23.52,116.27-.08Z" fill="#c4bfab"/>
      <path d="M622.06,337.12c-62.37-22.73-112.12-.31-112.62-.08l-2-4.35c.51-.23,52-23.51,116.27-.08Z" fill="#c4bfab"/>
      <path d="M508.33,348.17l-1.81-4.44c.93-.38,23.36-9.39,59.1-9l0,4.79C530.9,339.16,508.55,348.08,508.33,348.17Z" fill="#c4bfab"/>
      <path d="M622.06,387.45c-62.37-22.73-112.12-.31-112.62-.08l-2-4.35c.51-.23,52-23.51,116.27-.07Z" fill="#c4bfab"/>
      <path d="M622.06,399.44c-62.37-22.74-112.12-.31-112.62-.08l-2-4.35c.51-.24,52-23.52,116.27-.08Z" fill="#c4bfab"/>
      <path d="M622.06,440.18c-62.37-22.73-112.12-.31-112.62-.08l-2-4.35c.51-.23,52-23.51,116.27-.07Z" fill="#c4bfab"/>
      <path d="M622.06,452.16c-62.37-22.73-112.12-.3-112.62-.07l-2-4.35c.51-.24,52-23.52,116.27-.08Z" fill="#c4bfab"/>
      <path d="M622.06,464.15c-62.37-22.74-112.12-.31-112.62-.08l-2-4.35c.51-.24,52-23.51,116.27-.08Z" fill="#c4bfab"/>
    </g>
    <g>
      <path d="M762.06,313.15c-62.37-22.73-112.12-.31-112.62-.08l-2-4.34c.51-.24,52-23.52,116.26-.08Z" fill="#c4bfab"/>
      <path d="M762.06,325.13c-62.37-22.73-112.12-.3-112.62-.07l-2-4.35c.51-.24,52-23.52,116.26-.08Z" fill="#c4bfab"/>
      <path d="M762.06,337.12c-62.37-22.73-112.12-.31-112.62-.08l-2-4.35c.51-.23,52-23.51,116.26-.08Z" fill="#c4bfab"/>
      <path d="M762.06,349.1c-62.37-22.73-112.12-.3-112.62-.07l-2-4.36c.51-.23,52-23.51,116.26-.07Z" fill="#c4bfab"/>
      <path d="M762.06,361.08c-62.37-22.73-112.12-.3-112.62-.07l-2-4.35c.51-.24,52-23.51,116.26-.08Z" fill="#c4bfab"/>
      <path d="M762.06,373.07c-62.37-22.73-112.12-.31-112.62-.08l-2-4.35c.51-.24,52-23.51,116.26-.07Z" fill="#c4bfab"/>
      <path d="M762.85,384.55l1.82-4.44c-.94-.38-23.37-9.39-59.11-9l.05,4.79C740.28,375.55,762.63,384.47,762.85,384.55Z" fill="#c4bfab"/>
      <path d="M647.43,407.77v46.09s36.35-18.63,116.27,0V407.77S718.37,385.11,647.43,407.77Z" fill="#c4bfab"/>
    </g>
    <path d="M666.42,376.06V281.65a219.75,219.75,0,0,0-24,6.7v87.71l12-12Z" fill="#685b89"/>
  </g>
</svg>
